<svg style="position: absolute; width: 0; height: 0; overflow: hidden;" version="1.1" xmlns="http://www.w3.org/2000/svg" xmlns:xlink="http://www.w3.org/1999/xlink">
<defs>
<symbol id="icon-plus" viewBox="0 0 438.533 438.533">
<title>View Larger</title>
<path d="M409.133,109.203c-19.608-33.592-46.205-60.189-79.798-79.796C295.736,9.801,259.058,0,219.273,0
            c-39.781,0-76.47,9.801-110.063,29.407c-33.595,19.604-60.192,46.201-79.8,79.796C9.801,142.8,0,179.489,0,219.267
            c0,39.78,9.804,76.463,29.407,110.062c19.607,33.592,46.204,60.189,79.799,79.798c33.597,19.605,70.283,29.407,110.063,29.407
            s76.47-9.802,110.065-29.407c33.593-19.602,60.189-46.206,79.795-79.798c19.603-33.596,29.403-70.284,29.403-110.062
            C438.533,179.485,428.732,142.795,409.133,109.203z M347.179,237.539c0,4.948-1.811,9.236-5.428,12.847
            c-3.62,3.614-7.901,5.428-12.847,5.428h-73.091v73.084c0,4.948-1.813,9.232-5.428,12.854c-3.613,3.613-7.897,5.421-12.847,5.421
            h-36.543c-4.948,0-9.231-1.808-12.847-5.421c-3.617-3.621-5.426-7.905-5.426-12.854v-73.084h-73.089
            c-4.948,0-9.229-1.813-12.847-5.428c-3.616-3.61-5.424-7.898-5.424-12.847v-36.547c0-4.948,1.809-9.231,5.424-12.847
            c3.617-3.617,7.898-5.426,12.847-5.426h73.092v-73.089c0-4.949,1.809-9.229,5.426-12.847c3.616-3.616,7.898-5.424,12.847-5.424
            h36.547c4.948,0,9.233,1.809,12.847,5.424c3.614,3.617,5.428,7.898,5.428,12.847v73.089h73.084c4.948,0,9.232,1.809,12.847,5.426
            c3.617,3.615,5.428,7.898,5.428,12.847V237.539z">
</path>
</symbol>
<symbol id="icon-close" viewBox="0 0 27.965 27.965">
<title>Close</title>
<path d="M13.98,0C6.259,0,0,6.261,0,13.983c0,7.721,6.259,13.982,13.98,13.982c7.725,0,13.985-6.262,13.985-13.982
			C27.965,6.261,21.705,0,13.98,0z M19.992,17.769l-2.227,2.224c0,0-3.523-3.78-3.786-3.78c-0.259,0-3.783,3.78-3.783,3.78
			l-2.228-2.224c0,0,3.784-3.472,3.784-3.781c0-0.314-3.784-3.787-3.784-3.787l2.228-2.229c0,0,3.553,3.782,3.783,3.782
			c0.232,0,3.786-3.782,3.786-3.782l2.227,2.229c0,0-3.785,3.523-3.785,3.787C16.207,14.239,19.992,17.769,19.992,17.769z">
</path>
</symbol>
</defs>
</svg>